:SAMPLES-PER-SECOND 30
:FULLY-SPECIFIED
:DEGREES
846
root  57.3779 38.9078 5.57279 -9.7876 -70.1284 7.11937
RightUpLeg  -5.35237 -10.5785 -1.51705
RightLeg  17.9892 -0.639187 1.1577
RightFoot  -10.7431 -0.0560771 -3.15875
RightToes  -9.31324e-010 0 -3.6325e-017
Spine  12.093 2.66936 15.1049
Spine1  3.31758 7.03077 -13.5285
HEad  3.45715 55.4067 -16.8847
LeftShoulder1  -0.904674 5.94091 -30.9514
LeftArm  1.04182 27.0075 -37.3418
LeftForeArm  24.5919 -29.2784 -4.99895
LeftHand  -0.0375061 5.55372 -2.95231
RightShoulder  -0.837972 -5.79612 29.8943
RightArm  11.589 -6.39218 44.6085
RightForeArm  21.4563 5.40233 6.16794
RightHand  -0.0132173 1.50355 -0.358428
LeftUpLeg  -16.4271 -3.75266 1.16278
LeftLeg  22.6328 -0.405411 0.121986
LeftFoot  -8.12524 0.289883 -8.57191
LeftToes  8.61288e-010 -5.99147e-011 2.1039e-011
847
root  58.4635 38.8774 5.66895 -8.97424 -69.893 6.62827
RightUpLeg  -7.29284 -10.6996 -1.90921
RightLeg  17.7915 -0.697129 1.3618
RightFoot  -9.55723 -0.0270734 -2.4387
RightToes  -9.31324e-010 0 -3.6325e-017
Spine  12.145 2.18384 16.1572
Spine1  3.01907 6.81974 -14.16
HEad  2.94729 56.1814 -17.7494
LeftShoulder1  -0.89281 5.90217 -31.0095
LeftArm  0.868892 26.449 -37.0185
LeftForeArm  24.6963 -29.8824 -5.1337
LeftHand  -0.0330701 5.55252 -2.59663
RightShoulder  -0.994895 -6.19188 30.4245
RightArm  13.8735 -9.94452 43.2838
RightForeArm  20.9965 7.67385 6.82448
RightHand  -0.0357406 2.015 -0.721212
LeftUpLeg  -14.2333 -3.91856 2.92073
LeftLeg  26.65 -0.131195 0.264782
LeftFoot  -8.72257 0.234516 -7.97454
LeftToes  8.61288e-010 -5.99147e-011 2.1039e-011
848
root  59.5702 38.8154 5.74952 -8.15355 -69.861 6.0014
RightUpLeg  -9.2353 -10.9097 -2.19776
RightLeg  17.7217 -0.414362 1.53467
RightFoot  -8.48375 -0.0234154 -1.35211
RightToes  -9.31324e-010 0 -3.6325e-017
Spine  11.7176 1.72704 15.7897
Spine1  3.6626 6.15218 -12.6888
HEad  1.45529 57.4694 -20.1357
LeftShoulder1  -1.08399 6.31647 -32.3785
LeftArm  0.739588 25.2577 -36.5387
LeftForeArm  23.4513 -30.0025 -5.23111
LeftHand  -0.0520182 6.77167 -1.00743
RightShoulder  -0.862916 -5.92073 29.1175
RightArm  15.3577 -12.5198 43.3212
RightForeArm  21.713 9.3507 6.91882
RightHand  0.0765308 2.1588 0.983298
LeftUpLeg  -11.4843 -4.1694 4.61159
LeftLeg  29.8968 0.207416 0.453742
LeftFoot  -9.21161 0.19518 -7.52207
LeftToes  8.61288e-010 -5.99147e-011 2.1039e-011
849
root  60.6947 38.7198 5.84263 -7.61343 -69.8401 5.51138
RightUpLeg  -11.1359 -11.3431 -2.48364
RightLeg  17.8702 0.0844981 1.59822
RightFoot  -7.54196 -0.0440952 -0.221936
RightToes  -9.31324e-010 0 -3.6325e-017
Spine  11.8502 1.23463 15.4722
Spine1  3.50311 5.554 -11.9366
HEad  0.974376 58.4141 -20.8779
LeftShoulder1  -1.07931 6.31115 -32.2628
LeftArm  -0.133176 24.8135 -37.0019
LeftForeArm  23.2112 -29.735 -5.18176
LeftHand  -0.0401623 6.31999 -0.665394
RightShoulder  -0.960253 -6.17299 29.4109
RightArm  17.7709 -13.8657 41.8244
RightForeArm  20.9341 10.647 7.07332
RightHand  0.127582 2.77123 1.60843
LeftUpLeg  -8.16903 -4.35472 6.13151
LeftLeg  32.1759 -0.839548 -0.223578
LeftFoot  -9.89524 0.150212 -7.22458
LeftToes  8.61288e-010 -5.99147e-011 2.1039e-011
850
root  61.8496 38.6135 5.94138 -8.27448 -69.8876 6.27017
RightUpLeg  -13.0579 -11.8601 -3.13495
RightLeg  18.0208 0.780689 1.52612
RightFoot  -6.82789 -0.110549 1.63651
RightToes  -9.31324e-010 0 -3.6325e-017
Spine  11.966 0.791025 14.6304
Spine1  3.48673 4.98714 -11.333
HEad  0.126834 59.2037 -21.5592
LeftShoulder1  -1.00049 6.14846 -31.6569
LeftArm  -0.169584 24.3478 -37.5792
LeftForeArm  22.8572 -29.7028 -5.19396
LeftHand  -0.0446181 6.69478 -0.681259
RightShoulder  -1.01871 -6.33551 29.4254
RightArm  18.6713 -14.6399 40.8932
RightForeArm  21.0287 11.7605 6.7867
RightHand  0.15222 2.45447 2.05063
LeftUpLeg  -4.5493 -4.46011 6.88878
LeftLeg  33.4478 -1.4603 -0.689997
LeftFoot  -9.71794 0.157254 -6.98205
LeftToes  8.61288e-010 -5.99147e-011 2.1039e-011
851
root  62.9954 38.4685 6.05012 -8.41138 -69.8582 6.39204
RightUpLeg  -14.7698 -12.5783 -3.69579
RightLeg  18.0505 1.55568 1.69132
RightFoot  -6.31442 -0.212446 3.85077
RightToes  -9.31324e-010 0 -3.6325e-017
Spine  11.4766 0.611209 13.3303
Spine1  4.33376 4.41036 -9.51466
HEad  -1.06898 59.223 -22.793
LeftShoulder1  -0.898084 5.88437 -31.5594
LeftArm  0.691025 23.294 -37.815
LeftForeArm  22.9132 -29.5683 -5.15946
LeftHand  -0.0466359 6.51613 -1.21037
RightShoulder  -0.93339 -6.11496 29.1796
RightArm  18.2688 -15.3714 39.9057
RightForeArm  18.3195 13.226 6.103
RightHand  0.128834 2.29084 1.75551
LeftUpLeg  -0.764956 -4.45081 7.74593
LeftLeg  34.0382 -2.2046 -1.2517
LeftFoot  -9.57499 0.168357 -7.20753
LeftToes  8.61288e-010 -5.99147e-011 2.1039e-011
852
root  64.2033 38.2534 6.19438 -7.81284 -69.8799 6.07678
RightUpLeg  -17.0273 -13.1241 -3.92153
RightLeg  18.1197 1.84792 1.5844
RightFoot  -5.61673 -0.319518 5.63155
RightToes  -9.31324e-010 0 -3.6325e-017
Spine  11.1773 0.402266 12.6198
Spine1  4.45438 3.90574 -8.46962
HEad  -1.91984 58.8954 -23.6749
LeftShoulder1  -0.827192 5.69148 -31.6474
LeftArm  1.37428 22.2361 -37.676
LeftForeArm  24.1219 -29.9284 -5.17621
LeftHand  -0.0536665 7.59365 -0.59094
RightShoulder  -0.879543 -5.9651 29.1453
RightArm  17.8233 -15.3429 38.8252
RightForeArm  14.3555 13.9783 5.79872
RightHand  -0.034265 3.9346 -0.54735
LeftUpLeg  2.25232 -4.34838 8.42149
LeftLeg  34.5426 -2.77087 -1.69875
LeftFoot  -9.01331 0.192192 -6.81465
LeftToes  8.61288e-010 -5.99147e-011 2.1039e-011
853
root  65.465 37.9957 6.36779 -6.79506 -69.4923 5.31932
RightUpLeg  -19.2305 -13.957 -4.22494
RightLeg  18.0834 1.96244 1.62428
RightFoot  -4.99249 -0.43503 7.2101
RightToes  -9.31324e-010 0 -3.6325e-017
Spine  10.9742 -0.0307601 12.1974
Spine1  4.39767 3.19852 -7.4349
HEad  -2.02774 58.2629 -24.186
LeftShoulder1  -0.843671 5.72811 -31.7662
LeftArm  1.28278 21.2339 -37.4738
LeftForeArm  26.4042 -30.4794 -5.17891
LeftHand  -0.057994 6.60875 -1.76345
RightShoulder  -0.839688 -5.90175 28.414
RightArm  17.3055 -14.8088 38.6695
RightForeArm  10.6014 14.1913 5.76626
RightHand  -0.194342 6.10879 -2.23004
LeftUpLeg  4.80037 -4.64368 8.84912
LeftLeg  34.4295 -3.45198 -2.18807
LeftFoot  -7.85284 0.251693 -6.70934
LeftToes  8.61288e-010 -5.99147e-011 2.1039e-011
854
root  66.7687 37.7352 6.50278 -6.06259 -69.0909 4.87177
RightUpLeg  -21.0447 -14.3475 -4.66063
RightLeg  17.1402 1.58182 1.53041
RightFoot  -4.02436 -0.586683 8.73161
RightToes  -9.31324e-010 0 -3.6325e-017
Spine  11.0786 -0.338484 11.452
Spine1  3.94934 2.58065 -6.58814
HEad  -2.87048 57.3641 -25.0217
LeftShoulder1  -0.844331 5.74295 -31.5436
LeftArm  0.489503 20.9472 -37.4951
LeftForeArm  27.7836 -32.0655 -5.48268
LeftHand  -0.0421056 6.40737 -1.33614
RightShoulder  -0.722913 -5.57665 28.2135
RightArm  16.9791 -14.5911 37.8907
RightForeArm  9.66912 15.5871 5.21243
RightHand  0.188415 4.92217 1.75551
LeftUpLeg  7.28463 -4.37812 9.19037
LeftLeg  33.0035 -5.06527 -3.18514
LeftFoot  -6.10561 0.407947 -8.01614
LeftToes  8.61288e-010 -5.99147e-011 2.1039e-011
855
root  68.1716 37.4317 6.6684 -5.04555 -68.2394 3.94449
RightUpLeg  -22.5869 -14.8384 -5.34964
RightLeg  16.1136 0.500716 1.49319
RightFoot  -3.21202 -0.746522 10.1747
RightToes  -9.31324e-010 0 -3.6325e-017
Spine  11.2308 -0.707916 11.1586
Spine1  3.85368 2.02784 -5.84177
HEad  -3.44198 55.7607 -25.4184
LeftShoulder1  -0.793779 5.63809 -31.0257
LeftArm  -0.260799 20.7936 -37.835
LeftForeArm  28.4843 -34.3941 -6.02073
LeftHand  -0.0676121 8.62255 -0.613081
RightShoulder  -0.643667 -5.36388 27.9019
RightArm  17.0458 -13.5318 37.7823
RightForeArm  6.75351 15.1882 5.47586
RightHand  0.0781573 4.64752 0.642775
LeftUpLeg  9.28786 -4.4398 9.46802
LeftLeg  31.2014 -7.17464 -4.3335
LeftFoot  -6.67997 0.51215 -11.7239
LeftToes  8.61288e-010 -5.99147e-011 2.1039e-011
856
root  69.5891 37.173 6.83503 -4.69385 -67.3369 3.52545
RightUpLeg  -23.2076 -14.9113 -6.52565
RightLeg  13.8939 -1.04742 1.55837
RightFoot  -2.52573 -0.930442 11.8007
RightToes  -9.31324e-010 0 -3.6325e-017
Spine  11.9766 -0.870606 10.8748
Spine1  2.92161 1.75242 -5.76474
HEad  -3.10399 53.6255 -24.9747
LeftShoulder1  -0.689067 5.39834 -30.1921
LeftArm  -1.05636 20.7728 -38.5506
LeftForeArm  29.9298 -36.6486 -6.53139
LeftHand  -0.0291416 7.0426 0.136798
RightShoulder  -0.667951 -5.43877 27.8309
RightArm  17.7118 -13.0629 37.4982
RightForeArm  3.76234 15.0921 5.72857
RightHand  -0.0450669 4.95196 -0.800627
LeftUpLeg  11.3862 -4.08136 9.35763
LeftLeg  28.0583 -8.96591 -4.79937
LeftFoot  -11.3961 0.046584 -13.9942
LeftToes  8.61288e-010 -5.99147e-011 2.1039e-011
857
root  71.0182 36.9684 6.97655 -5.15742 -67.3163 3.98297
RightUpLeg  -23.5795 -14.2314 -7.7589
RightLeg  10.8476 -2.32603 1.70023
RightFoot  -1.52941 -1.09639 12.615
RightToes  -9.31324e-010 0 -3.6325e-017
Spine  12.1073 -0.379827 10.0731
Spine1  3.05106 2.07459 -5.85626
HEad  -3.43263 50.9282 -24.5397
LeftShoulder1  -0.512389 4.94491 -29.4486
LeftArm  -1.68171 20.2659 -39.0928
LeftForeArm  30.5444 -39.0912 -7.17558
LeftHand  -0.0022632 8.29402 1.14835
RightShoulder  -0.651103 -5.37653 28.0502
RightArm  17.4736 -12.9318 37.3791
RightForeArm  4.54483 15.8269 5.43094
RightHand  0.0375415 4.17459 0.174951
LeftUpLeg  13.3681 -1.79867 9.02168
LeftLeg  23.1452 -10.1977 -4.4465
LeftFoot  -17.8189 -0.699585 -14.654
LeftToes  8.61288e-010 -5.99147e-011 2.1039e-011
858
root  72.5265 36.7636 7.111 -6.64693 -66.9481 5.3522
RightUpLeg  -23.4947 -14.0425 -9.44074
RightLeg  7.38166 -3.50963 1.93853
RightFoot  -1.66124 -1.07967 12.5698
RightToes  -9.31324e-010 0 -3.6325e-017
Spine  13.0455 -0.0596183 8.16195
Spine1  2.56739 1.95283 -5.04194
HEad  -3.95459 48.43 -24.5866
LeftShoulder1  -0.366372 4.50888 -30.1136
LeftArm  -2.45977 19.619 -38.2368
LeftForeArm  31.6858 -41.1956 -7.73402
LeftHand  -0.0290924 4.44795 0.369296
RightShoulder  -0.603158 -5.27082 27.4009
RightArm  17.2286 -12.7867 38.1921
RightForeArm  4.60319 16.1909 5.31868
RightHand  0.0383149 4.96671 0.109791
LeftUpLeg  13.1767 -0.315625 7.30598
LeftLeg  20.94 -8.61855 -3.29603
LeftFoot  -22.5355 -0.886964 -10.3645
LeftToes  8.61288e-010 -5.99147e-011 2.1039e-011
